<svg width="30" height="30" viewBox="0 0 30 30" fill="none" xmlns="http://www.w3.org/2000/svg">
<path fill-rule="evenodd" clip-rule="evenodd" d="M7.88639 14.6556H11.9183C12.1608 14.6556 12.3757 14.6556 12.5567 14.6696C12.753 14.6847 12.9445 14.7183 13.1341 14.8018C13.3236 14.8853 13.4659 14.9989 13.5931 15.1264C13.7105 15.2439 13.8337 15.3929 13.9728 15.5611L13.9845 15.5753L14.2887 15.9432L14.3044 15.9622C14.5006 16.1994 14.6723 16.407 14.79 16.5918C14.9173 16.7914 15.008 17.0031 14.9994 17.2494C14.9909 17.4958 14.8855 17.7026 14.7447 17.8955C14.6143 18.0741 14.4284 18.2728 14.216 18.4999L11.4998 21.4044C11.3231 21.5934 11.1729 21.7541 11.039 21.8768C10.9002 22.0041 10.7461 22.1225 10.5498 22.2003C10.1395 22.3627 9.66523 22.3627 9.25496 22.2003C9.05863 22.1225 8.90449 22.0041 8.76567 21.8768C8.63185 21.7541 8.48163 21.5934 8.30492 21.4044L5.58869 18.4999C5.37637 18.2728 5.19043 18.0741 5.06008 17.8955C4.91918 17.7026 4.81388 17.4958 4.80527 17.2494C4.79672 17.0031 4.88744 16.7914 5.01469 16.5918C5.13241 16.407 5.30413 16.1994 5.50035 15.9622L5.83198 15.5611C5.97099 15.393 6.09422 15.2439 6.21158 15.1264C6.33883 14.9989 6.48111 14.8853 6.67065 14.8018C6.8602 14.7183 7.05169 14.6847 7.24801 14.6696C7.429 14.6556 7.64392 14.6556 7.88639 14.6556ZM11.0067 16.8354C10.8507 16.6372 10.9139 16.3694 11.148 16.2373C11.3821 16.1052 11.6984 16.1588 11.8544 16.3569L12.1091 16.6804C12.3853 17.0311 12.3561 17.4939 12.0373 17.8177L11.0578 18.8128C10.8777 18.9958 10.5565 19.0205 10.3403 18.868C10.1242 18.7156 10.095 18.4436 10.2751 18.2606L11.2547 17.2656C11.2846 17.2352 11.2873 17.1917 11.2614 17.1588L11.0067 16.8354Z" fill="url(#paint0_linear_46_14)"/>
<path d="M15.6327 6V7.59436H9.81998V8.86167H15.6327V10.3845H9.81998V22.9784L8.13392 22.3958L7.34458 6H15.6327Z" fill="url(#paint1_linear_46_14)"/>
<path d="M22.459 6V20.4744C22.459 21.2852 22.1854 21.9053 21.6381 22.3345C21.0993 22.7638 20.3541 22.9784 19.4027 22.9784C18.3923 22.9784 17.584 22.7502 16.9778 22.2937C16.38 21.8371 16.0811 21.1796 16.0811 20.3211H18.5312C18.5397 20.8867 18.7965 21.1694 19.3016 21.1694C19.7563 21.1694 19.9836 20.9378 19.9836 20.4744V6H22.459Z" fill="url(#paint2_linear_46_14)"/>
<path d="M7.34462 6V20.7031C7.34462 21.5268 7.61555 22.1566 8.15741 22.5926C8.69094 23.0286 9.42871 23.2467 10.3707 23.2467C11.3711 23.2467 12.1714 23.0148 12.7716 22.5511C13.3635 22.0874 13.6594 21.4195 13.6594 20.5474H11.2335C11.2252 21.1219 10.9709 21.4091 10.4708 21.4091C10.0206 21.4091 9.79551 21.1738 9.79551 20.7031V6H7.34462Z" fill="url(#paint3_linear_46_14)"/>
<path fill-rule="evenodd" clip-rule="evenodd" d="M17.8864 14.6556H21.9183C22.1608 14.6556 22.3757 14.6556 22.5567 14.6696C22.753 14.6848 22.9445 14.7183 23.1341 14.8018C23.3236 14.8854 23.4659 14.999 23.5932 15.1264C23.7105 15.2439 23.8337 15.393 23.9728 15.5611L23.9845 15.5753L24.2887 15.9432L24.3044 15.9622C24.5006 16.1994 24.6723 16.4071 24.79 16.5918C24.9173 16.7914 25.008 17.0031 24.9994 17.2495C24.9909 17.4958 24.8856 17.7027 24.7447 17.8955C24.6143 18.0741 24.4284 18.2728 24.2161 18.4999L21.4998 21.4044C21.3231 21.5935 21.1729 21.7541 21.0391 21.8768C20.9002 22.0042 20.7461 22.1225 20.5498 22.2003C20.1395 22.3627 19.6652 22.3627 19.255 22.2003C19.0586 22.1225 18.9045 22.0042 18.7657 21.8768C18.6319 21.7541 18.4816 21.5935 18.3049 21.4044L15.5887 18.4999C15.3764 18.2728 15.1904 18.0741 15.0601 17.8955C14.9192 17.7027 14.8139 17.4958 14.8053 17.2495C14.7967 17.0031 14.8875 16.7914 15.0147 16.5918C15.1324 16.4071 15.3041 16.1994 15.5004 15.9622L15.832 15.5611C15.971 15.393 16.0942 15.2439 16.2116 15.1264C16.3388 14.999 16.4811 14.8854 16.6707 14.8018C16.8602 14.7183 17.0517 14.6848 17.248 14.6696C17.429 14.6556 17.6439 14.6556 17.8864 14.6556ZM21.0067 16.8354C20.8507 16.6372 20.9139 16.3695 21.148 16.2374C21.3821 16.1053 21.6984 16.1588 21.8544 16.357L22.1091 16.6804C22.3853 17.0311 22.3561 17.4939 22.0374 17.8178L21.0578 18.8128C20.8777 18.9958 20.5565 19.0205 20.3404 18.868C20.1242 18.7156 20.095 18.4436 20.2752 18.2607L21.2547 17.2656C21.2846 17.2352 21.2874 17.1917 21.2614 17.1588L21.0067 16.8354Z" fill="white"/>
<path fill-rule="evenodd" clip-rule="evenodd" d="M17.8864 14.6556H21.9183C22.1608 14.6556 22.3757 14.6556 22.5567 14.6696C22.753 14.6847 22.9445 14.7183 23.1341 14.8018C23.3236 14.8853 23.4659 14.9989 23.5932 15.1264C23.7105 15.2439 23.8337 15.3929 23.9728 15.5611L23.9845 15.5753L24.2887 15.9432L24.3044 15.9622C24.5006 16.1994 24.6723 16.407 24.79 16.5918C24.9173 16.7914 25.008 17.0031 24.9994 17.2494C24.9909 17.4958 24.8856 17.7026 24.7447 17.8955C24.6143 18.0741 24.4284 18.2728 24.2161 18.4999L21.4998 21.4044C21.3231 21.5934 21.1729 21.7541 21.0391 21.8768C20.9002 22.0041 20.7461 22.1225 20.5498 22.2003C20.1395 22.3627 19.6652 22.3627 19.255 22.2003C19.0586 22.1225 18.9045 22.0041 18.7657 21.8768C18.6319 21.7541 18.4816 21.5934 18.3049 21.4044L15.5887 18.4999C15.3764 18.2728 15.1904 18.0741 15.0601 17.8955C14.9192 17.7026 14.8139 17.4958 14.8053 17.2494C14.7967 17.0031 14.8875 16.7914 15.0147 16.5918C15.1324 16.407 15.3041 16.1994 15.5004 15.9622L15.832 15.5611C15.971 15.393 16.0942 15.2439 16.2116 15.1264C16.3388 14.9989 16.4811 14.8853 16.6707 14.8018C16.8602 14.7183 17.0517 14.6847 17.248 14.6696C17.429 14.6556 17.6439 14.6556 17.8864 14.6556ZM21.0067 16.8354C20.8507 16.6372 20.9139 16.3694 21.148 16.2373C21.3821 16.1052 21.6984 16.1588 21.8544 16.3569L22.1091 16.6804C22.3853 17.0311 22.3561 17.4939 22.0374 17.8177L21.0578 18.8128C20.8777 18.9958 20.5565 19.0205 20.3404 18.868C20.1242 18.7156 20.095 18.4436 20.2752 18.2606L21.2547 17.2656C21.2846 17.2352 21.2874 17.1917 21.2614 17.1588L21.0067 16.8354Z" fill="url(#paint4_linear_46_14)"/>
<path d="M17.4787 6H21.9354V7.78268H17.4787V6.89134V6Z" fill="url(#paint5_linear_46_14)"/>
<defs>
<linearGradient id="paint0_linear_46_14" x1="5.69606" y1="22.0441" x2="19.9575" y2="15.8047" gradientUnits="userSpaceOnUse">
<stop stop-color="#8CCAF7"/>
<stop offset="1" stop-color="#F7F9FD"/>
</linearGradient>
<linearGradient id="paint1_linear_46_14" x1="0.467673" y1="27.1852" x2="30.3317" y2="-2.20205" gradientUnits="userSpaceOnUse">
<stop stop-color="#8CCAF7"/>
<stop offset="0.525" stop-color="#C8E6FB"/>
<stop offset="0.5251" stop-color="#C8E6FB"/>
<stop offset="1" stop-color="white"/>
</linearGradient>
<linearGradient id="paint2_linear_46_14" x1="0.467673" y1="27.1852" x2="30.3317" y2="-2.20205" gradientUnits="userSpaceOnUse">
<stop stop-color="#8CCAF7"/>
<stop offset="0.525" stop-color="#C8E6FB"/>
<stop offset="0.5251" stop-color="#C8E6FB"/>
<stop offset="1" stop-color="white"/>
</linearGradient>
<linearGradient id="paint3_linear_46_14" x1="15.9049" y1="26.0702" x2="-3.76143" y2="18.1187" gradientUnits="userSpaceOnUse">
<stop stop-color="#8CCAF7"/>
<stop offset="0.525" stop-color="#C8E6FB"/>
<stop offset="0.5251" stop-color="#C8E6FB"/>
<stop offset="1" stop-color="white"/>
</linearGradient>
<linearGradient id="paint4_linear_46_14" x1="15.6961" y1="22.0441" x2="29.9575" y2="15.8047" gradientUnits="userSpaceOnUse">
<stop stop-color="#8CCAF7"/>
<stop offset="1" stop-color="#F7F9FD"/>
</linearGradient>
<linearGradient id="paint5_linear_46_14" x1="23" y1="5" x2="17.5" y2="9" gradientUnits="userSpaceOnUse">
<stop stop-color="white"/>
<stop offset="0.255" stop-color="#D8EDFC"/>
</linearGradient>
</defs>
</svg>
