<svg width="11" height="8" viewBox="0 0 11 8" fill="none" xmlns="http://www.w3.org/2000/svg">
<path fill-rule="evenodd" clip-rule="evenodd" d="M3.08168 4.28254e-07H7.11359C7.35604 -8.19651e-06 7.57098 -1.68665e-05 7.75197 0.0139725C7.9483 0.0291521 8.13981 0.0626809 8.32935 0.14622C8.51888 0.22976 8.66116 0.343352 8.78843 0.470809C8.90577 0.588313 9.02901 0.73737 9.16804 0.905523L9.17975 0.919698L9.48396 1.28759L9.49966 1.30658C9.69585 1.54382 9.86756 1.75146 9.98532 1.9362C10.1125 2.13579 10.2033 2.3475 10.1947 2.59386C10.1861 2.84023 10.0808 3.04704 9.93994 3.23994C9.80954 3.41851 9.62368 3.61723 9.41133 3.84427L6.69509 6.74884C6.51838 6.93785 6.36813 7.09848 6.23432 7.22122C6.09551 7.34856 5.94136 7.46693 5.74504 7.54469C5.33476 7.70709 4.86051 7.70709 4.45024 7.54469C4.25391 7.46693 4.09977 7.34856 3.96096 7.22122C3.82714 7.09848 3.67691 6.93785 3.5002 6.74884L0.783967 3.84427C0.571648 3.61723 0.385716 3.41851 0.25536 3.23994C0.114459 3.04704 0.00916564 2.84023 0.000556743 2.59386C-0.00800122 2.3475 0.0827235 2.13579 0.209972 1.9362C0.327695 1.75146 0.499414 1.54382 0.695636 1.30658L1.02726 0.905536C1.16627 0.737375 1.2895 0.588313 1.40686 0.470809C1.53411 0.343352 1.67639 0.22976 1.86594 0.14622C2.05549 0.0626809 2.24697 0.0291521 2.44329 0.0139725C2.62429 -1.68665e-05 2.8392 -8.19651e-06 3.08168 4.28254e-07ZM6.202 2.17978C6.04594 1.98161 6.10921 1.71387 6.34328 1.58176C6.57736 1.44965 6.89364 1.5032 7.04969 1.70136L7.30439 2.02479C7.5806 2.37553 7.5514 2.83829 7.23262 3.16214L6.25307 4.15722C6.07299 4.3402 5.75176 4.36491 5.53562 4.21242C5.31948 4.05998 5.29029 3.78804 5.47042 3.60507L6.44996 2.60998C6.47989 2.57958 6.48263 2.53613 6.4567 2.50321L6.202 2.17978Z" fill="url(#paint0_linear_46_12)"/>
<defs>
<linearGradient id="paint0_linear_46_12" x1="0.891343" y1="7.38847" x2="15.1528" y2="1.1491" gradientUnits="userSpaceOnUse">
<stop stop-color="#8CCAF7"/>
<stop offset="1" stop-color="#F7F9FD"/>
</linearGradient>
</defs>
</svg>
